<mxfile host="app.diagrams.net" agent="Mozilla/5.0 (Windows NT 10.0; Win64; x64) AppleWebKit/537.36 (KHTML, like Gecko) Chrome/136.0.0.0 Safari/537.36 Edg/136.0.0.0" version="26.2.14">
  <diagram name="Halaman-1" id="3Iq592t14BPJjdHrvJm_">
    <mxGraphModel dx="864" dy="511" grid="0" gridSize="10" guides="1" tooltips="1" connect="1" arrows="1" fold="1" page="1" pageScale="1" pageWidth="1920" pageHeight="1200" math="0" shadow="0">
      <root>
        <mxCell id="0" />
        <mxCell id="1" parent="0" />
        <mxCell id="CZBNT9retLkxVfXpRicA-1" value="" style="shape=image;verticalLabelPosition=bottom;labelBackgroundColor=default;verticalAlign=top;aspect=fixed;imageAspect=0;image=https://png.pngtree.com/element_our/20200610/ourmid/pngtree-cpu-processor-image_2238632.jpg;flipV=1;flipH=1;rotation=-180;" vertex="1" parent="1">
          <mxGeometry x="35" y="43" width="121" height="121" as="geometry" />
        </mxCell>
        <mxCell id="CZBNT9retLkxVfXpRicA-3" value="" style="shape=image;verticalLabelPosition=bottom;labelBackgroundColor=default;verticalAlign=top;aspect=fixed;imageAspect=0;image=https://png.pngtree.com/element_our/20200610/ourmid/pngtree-cpu-processor-image_2238632.jpg;" vertex="1" parent="1">
          <mxGeometry x="194" y="43" width="118" height="118" as="geometry" />
        </mxCell>
        <mxCell id="CZBNT9retLkxVfXpRicA-4" value="" style="shape=image;verticalLabelPosition=bottom;labelBackgroundColor=default;verticalAlign=top;aspect=fixed;imageAspect=0;image=https://png.pngtree.com/element_our/20200610/ourmid/pngtree-cpu-processor-image_2238632.jpg;" vertex="1" parent="1">
          <mxGeometry x="343" y="42" width="113" height="113" as="geometry" />
        </mxCell>
      </root>
    </mxGraphModel>
  </diagram>
</mxfile>
